# xmcd CD database file
#
# Track frame offsets:
#	150
#	19682
#	38516
#	55493
#	72134
#	92946
#	115048
#	135351
#	152368
#	168908
#	191547
#	204937
#	220473
#
# Disc length: 3147 seconds
#
# Revision: 0
# Processed by: cddbd v1.5.1PL2 Copyright (c) Steve Scherf et al.
# Submitted via: CDex 1.51
#
DISCID=a50c490d
DTITLE=Stacey Kent - Collection III
DYEAR=2006
DGENRE=Jazz
TTITLE0=You've got a friend
TTITLE1=What the world needs now is love
TTITLE2=Nobody's heart (belongs to me)
TTITLE3=The boy next door
TTITLE4=It never entered my mind
TTITLE5=I got it bad
TTITLE6='Tis autumn
TTITLE7=People will say we're in love
TTITLE8=Shall we dance
TTITLE9=Bewitched, bothered and bewildered
TTITLE10=Bali ha'i
TTITLE11=The best is yet to come
TTITLE12=Too darn hot
EXTD=YEAR: 2006
EXTT0=
EXTT1=
EXTT2=
EXTT3=
EXTT4=
EXTT5=
EXTT6=
EXTT7=
EXTT8=
EXTT9=
EXTT10=
EXTT11=
EXTT12=
PLAYORDER=
